<?xml version="1.0" encoding="UTF-8" standalone="no"?>
<svg xmlns="http://www.w3.org/2000/svg" xmlns:xlink="http://www.w3.org/1999/xlink" width="800" height="600" viewBox="0 0 800 600">
  <defs>
    <linearGradient id="grad1" x1="0%" y1="0%" x2="100%" y2="0%">
      <stop offset="0%" style="stop-color:#FF9900;stop-opacity:1" />
      <stop offset="100%" style="stop-color:#FFC266;stop-opacity:1" />
    </linearGradient>
    <linearGradient id="grad2" x1="0%" y1="0%" x2="100%" y2="0%">
      <stop offset="0%" style="stop-color:#232F3E;stop-opacity:1" />
      <stop offset="100%" style="stop-color:#415A77;stop-opacity:1" />
    </linearGradient>
    <linearGradient id="grad3" x1="0%" y1="0%" x2="100%" y2="0%">
      <stop offset="0%" style="stop-color:#5bc0de;stop-opacity:1" />
      <stop offset="100%" style="stop-color:#31b0d5;stop-opacity:1" />
    </linearGradient>
    <linearGradient id="grad4" x1="0%" y1="0%" x2="100%" y2="0%">
      <stop offset="0%" style="stop-color:#5cb85c;stop-opacity:1" />
      <stop offset="100%" style="stop-color:#449d44;stop-opacity:1" />
    </linearGradient>
    <linearGradient id="grad5" x1="0%" y1="0%" x2="100%" y2="0%">
      <stop offset="0%" style="stop-color:#d9534f;stop-opacity:1" />
      <stop offset="100%" style="stop-color:#c9302c;stop-opacity:1" />
    </linearGradient>
  </defs>

  <!-- Main Title -->
  <text x="400" y="40" font-family="Arial, sans-serif" font-size="24" text-anchor="middle" fill="#333">AWS環境アーキテクチャ</text>

  <!-- VPC Boundary -->
  <rect x="50" y="70" width="700" height="480" rx="10" ry="10" fill="#f8f8f8" stroke="#ddd" stroke-width="2"/>
  <text x="100" y="95" font-family="Arial, sans-serif" font-size="18" fill="#333">VPC</text>

  <!-- Public Subnet -->
  <rect x="80" y="110" width="640" height="180" rx="5" ry="5" fill="#e6f7ff" stroke="#b3e0ff" stroke-width="2"/>
  <text x="120" y="130" font-family="Arial, sans-serif" font-size="16" fill="#333">Public Subnet</text>

  <!-- Private Subnet -->
  <rect x="80" y="310" width="640" height="220" rx="5" ry="5" fill="#e6ffe6" stroke="#b3ffb3" stroke-width="2"/>
  <text x="120" y="330" font-family="Arial, sans-serif" font-size="16" fill="#333">Private Subnet</text>

  <!-- CloudFront -->
  <rect x="110" y="150" width="140" height="60" rx="5" ry="5" fill="url(#grad1)" stroke="#FF9900" stroke-width="2"/>
  <text x="180" y="185" font-family="Arial, sans-serif" font-size="16" text-anchor="middle" fill="white">CloudFront</text>

  <!-- ALB -->
  <rect x="310" y="150" width="140" height="60" rx="5" ry="5" fill="url(#grad1)" stroke="#FF9900" stroke-width="2"/>
  <text x="380" y="185" font-family="Arial, sans-serif" font-size="16" text-anchor="middle" fill="white">ALB</text>

  <!-- ECS Fargate (Web App) -->
  <rect x="180" y="350" width="140" height="60" rx="5" ry="5" fill="url(#grad2)" stroke="#232F3E" stroke-width="2"/>
  <text x="250" y="375" font-family="Arial, sans-serif" font-size="16" text-anchor="middle" fill="white">ECS (Fargate)</text>
  <text x="250" y="395" font-family="Arial, sans-serif" font-size="12" text-anchor="middle" fill="white">Webアプリケーション</text>

  <!-- ECS Fargate (Worker) -->
  <rect x="180" y="430" width="140" height="60" rx="5" ry="5" fill="url(#grad2)" stroke="#232F3E" stroke-width="2"/>
  <text x="250" y="455" font-family="Arial, sans-serif" font-size="16" text-anchor="middle" fill="white">ECS (Fargate)</text>
  <text x="250" y="475" font-family="Arial, sans-serif" font-size="12" text-anchor="middle" fill="white">Celeryワーカー</text>

  <!-- RDS -->
  <rect x="400" y="350" width="140" height="60" rx="5" ry="5" fill="url(#grad3)" stroke="#31b0d5" stroke-width="2"/>
  <text x="470" y="375" font-family="Arial, sans-serif" font-size="16" text-anchor="middle" fill="white">RDS</text>
  <text x="470" y="395" font-family="Arial, sans-serif" font-size="12" text-anchor="middle" fill="white">PostgreSQL</text>

  <!-- ElastiCache (Redis) -->
  <rect x="400" y="430" width="140" height="60" rx="5" ry="5" fill="url(#grad4)" stroke="#449d44" stroke-width="2"/>
  <text x="470" y="455" font-family="Arial, sans-serif" font-size="16" text-anchor="middle" fill="white">ElastiCache</text>
  <text x="470" y="475" font-family="Arial, sans-serif" font-size="12" text-anchor="middle" fill="white">Redis</text>

  <!-- S3 -->
  <rect x="550" y="150" width="140" height="60" rx="5" ry="5" fill="url(#grad1)" stroke="#FF9900" stroke-width="2"/>
  <text x="620" y="185" font-family="Arial, sans-serif" font-size="16" text-anchor="middle" fill="white">S3</text>

  <!-- CloudWatch -->
  <rect x="550" y="350" width="140" height="60" rx="5" ry="5" fill="url(#grad5)" stroke="#c9302c" stroke-width="2"/>
  <text x="620" y="380" font-family="Arial, sans-serif" font-size="16" text-anchor="middle" fill="white">CloudWatch</text>

  <!-- X-Ray -->
  <rect x="550" y="430" width="140" height="60" rx="5" ry="5" fill="url(#grad5)" stroke="#c9302c" stroke-width="2"/>
  <text x="620" y="465" font-family="Arial, sans-serif" font-size="16" text-anchor="middle" fill="white">X-Ray</text>

  <!-- Connection Lines -->
  <!-- CloudFront to ALB -->
  <line x1="250" y1="180" x2="310" y2="180" stroke="#666" stroke-width="2" stroke-dasharray="5,3"/>
  <!-- CloudFront to S3 -->
  <line x1="250" y1="165" x2="550" y2="165" stroke="#666" stroke-width="2" stroke-dasharray="5,3"/>
  <!-- ALB to ECS (Web) -->
  <line x1="380" y1="210" x2="250" y2="350" stroke="#666" stroke-width="2" stroke-dasharray="5,3"/>
  <!-- ECS (Web) to RDS -->
  <line x1="320" y1="380" x2="400" y2="380" stroke="#666" stroke-width="2" stroke-dasharray="5,3"/>
  <!-- ECS (Web) to ElastiCache -->
  <line x1="300" y1="410" x2="400" y2="445" stroke="#666" stroke-width="2" stroke-dasharray="5,3"/>
  <!-- ECS (Worker) to RDS -->
  <line x1="320" y1="440" x2="400" y2="400" stroke="#666" stroke-width="2" stroke-dasharray="5,3"/>
  <!-- ECS (Worker) to ElastiCache -->
  <line x1="320" y1="460" x2="400" y2="460" stroke="#666" stroke-width="2" stroke-dasharray="5,3"/>
  <!-- ECS (Worker) to S3 -->
  <line x1="230" y1="430" x2="580" y2="210" stroke="#666" stroke-width="2" stroke-dasharray="5,3"/>
  <!-- ECS to CloudWatch -->
  <line x1="320" y1="380" x2="550" y2="380" stroke="#666" stroke-width="2" stroke-dasharray="5,3"/>
  <!-- ECS to X-Ray -->
  <line x1="320" y1="460" x2="550" y2="460" stroke="#666" stroke-width="2" stroke-dasharray="5,3"/>

  <!-- Internet -->
  <ellipse cx="180" cy="80" rx="40" ry="20" fill="#ffffff" stroke="#999999" stroke-width="2"/>
  <text x="180" y="85" font-family="Arial, sans-serif" font-size="12" text-anchor="middle" fill="#333">Internet</text>
  <line x1="180" y1="100" x2="180" y2="150" stroke="#666" stroke-width="2"/>

  <!-- Legend -->
  <rect x="600" y="545" width="100" height="20" rx="5" ry="5" fill="#ffffff" stroke="#cccccc" stroke-width="2"/>
  <text x="650" y="560" font-family="Arial, sans-serif" font-size="12" text-anchor="middle" fill="#333">データフロー</text>
  <line x1="620" y1="560" x2="680" y2="560" stroke="#666" stroke-width="2" stroke-dasharray="5,3"/>
</svg>